<?xml version="1.0" encoding="UTF-8" standalone="no"?>
<!DOCTYPE svg PUBLIC "-//W3C//DTD SVG 1.1//EN" "http://www.w3.org/Graphics/SVG/1.1/DTD/svg11.dtd">
<svg version="1.1" xmlns="http://www.w3.org/2000/svg" xmlns:xlink="http://www.w3.org/1999/xlink" preserveAspectRatio="xMidYMid meet" viewBox="0 0 500 500" width="1024" height="1024"><defs><path d="M95.41 219.2L92.66 218.9L90.09 218.97L87.68 219.4L85.43 220.18L83.34 221.28L81.39 222.69L79.59 224.4L77.92 226.37L76.38 228.61L74.96 231.08L73.66 233.78L72.48 236.69L71.4 239.79L70.41 243.06L69.53 246.49L68.73 250.06L68.01 253.75L67.36 257.54L66.79 261.43L66.28 265.39L65.83 269.4L65.43 273.45L65.07 277.53L64.76 281.6L64.47 285.67L64.22 289.71L63.99 293.7L63.77 297.62L63.56 301.47L63.36 305.22L63.15 308.86L62.94 312.37L62.71 315.73L62.46 318.93L62.18 321.94L61.88 324.76L61.53 327.36L61.14 329.73L60.7 331.85L60.2 333.71L60.19 333.8L60.18 334.09L60.15 334.56L60.11 335.19L60.04 335.98L59.95 336.93L59.84 338.01L59.69 339.22L59.51 340.56L59.29 342L59.02 343.55L58.72 345.18L58.36 346.9L57.95 348.69L57.49 350.54L56.96 352.44L56.37 354.39L55.72 356.37L55 358.37L54.2 360.38L53.32 362.39L52.37 364.4L51.33 366.4L50.2 368.36L48.99 370.3L47.67 372.18L46.26 374.01L44.75 375.78L43.13 377.47L41.4 379.07L39.56 380.58L37.61 381.99L35.53 383.28L33.34 384.45L31.01 385.49L28.56 386.38L25.97 387.12L23.24 387.69L20.38 388.1L17.37 388.32L19.02 387.95L20.58 387.39L22.06 386.65L23.46 385.74L24.79 384.67L26.04 383.44L27.21 382.08L28.32 380.58L29.35 378.97L30.33 377.25L31.23 375.43L32.08 373.52L32.86 371.54L33.59 369.49L34.26 367.38L34.88 365.23L35.45 363.04L35.96 360.82L36.44 358.6L36.86 356.37L37.25 354.14L37.59 351.93L37.9 349.75L38.17 347.61L38.41 345.52L38.62 343.48L38.8 341.52L38.95 339.64L39.07 337.84L39.18 336.15L39.26 334.57L39.33 333.11L39.38 331.78L39.41 330.6L39.44 329.57L39.45 328.7L39.46 328.01L39.46 327.5L39.46 327.19L39.46 327.08L39.45 326.85L39.41 326.17L39.36 325.07L39.31 323.58L39.25 321.71L39.21 319.5L39.18 316.97L39.17 314.14L39.19 311.04L39.25 307.7L39.36 304.14L39.52 300.39L39.73 296.47L40.02 292.4L40.38 288.22L40.82 283.94L41.36 279.6L41.99 275.21L42.72 270.81L43.57 266.41L44.53 262.05L45.62 257.75L46.85 253.53L48.22 249.42L49.74 245.45L51.41 241.63L53.25 238.01L55.25 234.59L57.44 231.41L59.81 228.49L62.38 225.85L65.15 223.53L68.12 221.54L71.31 219.92L74.73 218.68L78.37 217.86L82.26 217.47L86.38 217.55L90.76 218.12L90.76 218.12L95.41 219.2ZM106.43 224.95L107.37 225.22L108.31 225.57L109.26 225.98L110.21 226.46L111.18 227L112.15 227.59L113.12 228.24L114.11 228.92L115.1 229.65L116.1 230.42L117.11 231.22L118.13 232.04L119.16 232.89L117.34 233.93L115.63 235.22L114.03 236.76L112.53 238.52L111.13 240.49L109.83 242.65L108.61 245L107.49 247.52L106.45 250.19L105.5 253L104.62 255.93L103.83 258.97L103.1 262.11L102.44 265.32L101.85 268.6L101.33 271.93L100.86 275.3L100.45 278.69L100.09 282.08L99.78 285.47L99.52 288.83L99.31 292.16L99.13 295.43L98.99 298.64L98.88 301.77L98.81 304.8L98.76 307.72L98.74 310.52L98.73 313.18L98.75 315.68L98.77 318.01L98.81 320.16L98.86 322.11L98.91 323.85L98.96 325.36L99.01 326.63L99.06 327.64L99.09 328.39L99.12 328.84L99.13 329L99.12 329.08L99.12 329.32L99.1 329.71L99.07 330.25L99.01 330.92L98.94 331.73L98.84 332.65L98.71 333.69L98.55 334.84L98.35 336.09L98.11 337.43L97.82 338.85L97.48 340.35L97.09 341.93L96.65 343.56L96.14 345.26L95.56 347L94.91 348.78L94.2 350.6L93.4 352.44L92.52 354.3L91.56 356.17L90.51 358.04L89.37 359.92L88.13 361.78L86.79 363.62L85.34 365.44L83.79 367.23L82.12 368.97L80.33 370.67L78.43 372.32L76.4 373.9L74.24 375.41L71.95 376.84L69.52 378.19L66.96 379.45L64.25 380.61L61.39 381.66L58.38 382.6L55.21 383.42L57.1 382.4L58.89 381.22L60.58 379.91L62.16 378.46L63.65 376.88L65.04 375.2L66.34 373.4L67.55 371.51L68.67 369.54L69.72 367.48L70.68 365.36L71.57 363.18L72.38 360.95L73.13 358.67L73.8 356.37L74.42 354.04L74.97 351.7L75.46 349.36L75.9 347.02L76.29 344.69L76.62 342.39L76.92 340.12L77.17 337.89L77.38 335.72L77.55 333.6L77.69 331.56L77.8 329.59L77.88 327.71L77.94 325.93L77.98 324.26L78 322.7L78 321.26L77.99 319.96L77.98 318.81L77.95 317.8L77.93 316.96L77.9 316.29L77.88 315.8L77.87 315.5L77.86 315.4L77.77 313.15L77.71 310.93L77.67 308.74L77.66 306.57L77.67 304.44L77.69 302.33L77.74 300.26L77.81 298.22L77.9 296.22L78 294.25L78.11 292.33L78.24 290.44L78.38 288.6L78.54 286.81L78.7 285.06L78.87 283.35L79.05 281.7L79.24 280.1L79.43 278.55L79.62 277.06L79.82 275.62L80.02 274.24L80.22 272.92L80.41 271.66L80.61 270.47L80.8 269.34L80.98 268.27L81.16 267.28L81.34 266.35L81.5 265.5L81.66 264.72L81.8 264.01L81.93 263.38L82.05 262.83L82.15 262.36L82.24 261.97L82.31 261.67L82.36 261.45L82.39 261.32L82.4 261.27L83.28 257.9L84.17 254.72L85.04 251.73L85.92 248.92L86.8 246.29L87.67 243.84L88.55 241.56L89.42 239.44L90.3 237.49L91.18 235.7L92.05 234.05L92.93 232.56L93.81 231.21L94.69 230L95.58 228.93L96.46 227.98L97.35 227.17L98.24 226.47L99.13 225.89L100.03 225.43L100.93 225.07L101.84 224.81L102.75 224.66L103.66 224.6L104.58 224.63L105.5 224.75L105.5 224.75L106.43 224.95ZM129.94 245.2L130.4 245.8L130.96 246.56L131.6 247.49L132.32 248.57L133.09 249.8L133.91 251.19L134.76 252.73L135.63 254.41L136.51 256.23L137.38 258.19L138.22 260.29L139.03 262.53L139.78 264.89L140.47 267.38L141.09 269.99L141.61 272.73L142.03 275.58L142.33 278.55L142.5 281.63L142.52 284.82L142.38 288.12L142.07 291.52L141.57 295.01L140.88 298.61L139.96 302.3L138.82 306.07L137.44 309.94L135.81 313.89L133.9 317.92L131.71 322.03L129.23 326.22L126.43 330.47L123.32 334.8L119.86 339.19L116.05 343.65L111.88 348.16L107.34 352.73L107.48 352.07L107.65 351.43L107.85 350.79L108.07 350.16L108.31 349.53L108.57 348.9L108.85 348.27L109.15 347.63L109.46 346.99L109.78 346.34L110.11 345.67L110.45 344.99L110.8 344.29L111.15 343.57L111.51 342.83L111.87 342.05L112.23 341.25L112.58 340.42L112.93 339.55L113.27 338.64L113.61 337.7L113.94 336.7L114.25 335.67L114.55 334.58L114.84 333.45L115.1 332.26L115.35 331.01L115.58 329.7L115.78 328.33L115.96 326.89L116.11 325.39L116.24 323.82L116.33 322.17L116.39 320.45L116.42 318.64L116.41 316.76L116.37 314.79L116.28 312.73L116.15 310.59L115.98 308.35L115.98 308.26L115.96 308.01L115.94 307.6L115.91 307.03L115.88 306.32L115.84 305.48L115.81 304.5L115.78 303.39L115.75 302.17L115.74 300.84L115.73 299.4L115.73 297.87L115.75 296.25L115.78 294.54L115.84 292.77L115.91 290.92L116 289.01L116.12 287.05L116.27 285.04L116.44 282.99L116.65 280.91L116.88 278.8L117.16 276.67L117.47 274.53L117.82 272.39L118.21 270.25L118.65 268.12L119.13 266L119.66 263.91L120.24 261.84L120.88 259.82L121.57 257.84L122.31 255.91L123.12 254.03L123.98 252.23L124.91 250.5L125.91 248.84L126.97 247.27L128.1 245.8L129.31 244.43L129.38 244.51L129.6 244.77L129.6 244.77L129.94 245.2ZM245.32 23.77L245.82 24.08L246.16 24.5L246.48 25.16L246.79 26.04L247.07 27.16L247.34 28.49L247.57 30.02L247.78 31.76L247.95 33.7L248.09 35.82L248.19 38.12L248.24 40.59L248.26 43.22L248.22 46.01L248.13 48.95L247.99 52.03L247.8 55.25L247.54 58.59L247.22 62.05L246.84 65.62L246.38 69.29L245.85 73.07L245.25 76.93L244.57 80.87L243.81 84.88L242.97 88.96L242.04 93.1L241.01 97.29L239.9 101.53L238.69 105.8L237.38 110.09L235.96 114.41L234.44 118.75L232.82 123.09L231.08 127.42L229.23 131.75L227.26 136.07L225.17 140.35L222.95 144.61L220.61 148.83L218.14 153L215.59 157.08L212.99 161.04L210.36 164.87L207.7 168.57L205.02 172.15L202.31 175.6L199.58 178.93L196.84 182.13L194.09 185.21L191.34 188.16L188.58 190.98L185.83 193.69L183.08 196.26L180.35 198.71L177.62 201.04L174.92 203.24L172.24 205.32L169.59 207.27L166.97 209.1L165.58 210.02L166.04 211.65L166.73 214.37L167.33 217.13L167.85 219.92L168.3 222.73L168.67 225.56L168.97 228.4L169.19 231.24L169.34 234.08L169.42 236.91L169.43 239.72L169.37 242.51L169.25 245.28L169.06 248.01L168.81 250.71L168.5 253.35L168.13 255.95L167.7 258.49L167.22 260.96L166.68 263.36L166.08 265.69L165.43 267.93L164.73 270.09L163.99 272.15L163.19 274.11L162.35 275.96L161.46 277.69L160.53 279.31L160.33 279.63L160.13 279.96L159.92 280.27L159.71 280.59L159.5 280.9L159.28 281.21L159.06 281.51L158.84 281.81L158.61 282.1L158.38 282.4L158.15 282.68L157.92 282.97L157.68 283.25L157.44 283.53L157.2 283.8L156.95 284.07L156.71 284.34L156.46 284.6L156.2 284.86L155.95 285.12L155.69 285.37L155.43 285.62L155.16 285.87L154.9 286.11L154.63 286.35L154.36 286.58L154.08 286.81L153.81 287.04L153.53 287.26L153.25 287.48L152.96 287.7L152.68 287.91L152.39 288.12L152.1 288.33L151.81 288.53L151.51 288.73L151.21 288.92L150.91 289.12L150.61 289.3L150.31 289.49L150.48 287.97L150.59 286.44L150.67 284.89L150.69 283.32L150.66 281.74L150.58 280.15L150.46 278.54L150.29 276.92L150.07 275.3L149.8 273.66L149.49 272.02L149.13 270.37L148.73 268.71L148.28 267.06L147.78 265.4L147.24 263.74L146.66 262.07L146.03 260.41L145.36 258.76L144.65 257.1L143.89 255.45L143.09 253.81L142.25 252.18L141.36 250.55L140.44 248.93L139.47 247.33L138.47 245.74L137.42 244.16L136.33 242.59L135.21 241.04L134.04 239.51L132.84 238L131.59 236.51L130.31 235.03L129 233.58L127.64 232.16L126.25 230.76L124.82 229.38L123.35 228.03L121.85 226.71L120.33 225.43L118.79 224.19L117.25 223.01L115.69 221.88L114.13 220.79L112.55 219.76L110.98 218.77L109.39 217.83L107.81 216.95L106.22 216.11L104.63 215.32L103.04 214.58L101.45 213.89L99.86 213.25L98.27 212.66L96.69 212.12L95.11 211.63L93.54 211.18L91.97 210.79L90.42 210.45L88.87 210.16L87.33 209.92L85.81 209.72L84.29 209.58L82.79 209.49L81.31 209.45L79.84 209.45L78.39 209.51L76.96 209.62L75.54 209.78L74.15 209.98L72.78 210.24L71.43 210.55L70.1 210.91L68.8 211.32L67.52 211.78L66.27 212.29L65.05 212.85L63.86 213.46L62.7 214.12L62.75 213.72L62.81 213.32L62.87 212.92L62.93 212.53L63 212.13L63.07 211.74L63.15 211.35L63.22 210.96L63.31 210.57L63.39 210.18L63.48 209.8L63.57 209.41L63.67 209.03L63.77 208.65L63.87 208.27L63.98 207.9L64.09 207.52L64.21 207.15L64.33 206.77L64.45 206.41L64.57 206.04L64.7 205.67L64.84 205.31L64.97 204.94L65.11 204.58L65.26 204.23L65.41 203.87L65.56 203.52L65.72 203.16L65.88 202.81L66.04 202.47L66.21 202.12L66.38 201.78L66.55 201.43L66.73 201.09L66.91 200.76L67.1 200.42L67.29 200.09L67.48 199.76L67.68 199.43L68.69 197.88L69.81 196.34L71.03 194.82L72.35 193.32L73.77 191.83L75.28 190.38L76.88 188.95L78.56 187.56L80.32 186.2L82.15 184.89L84.05 183.62L86.02 182.39L88.04 181.22L90.12 180.1L92.26 179.04L94.44 178.05L96.66 177.12L98.92 176.26L101.21 175.47L103.53 174.76L105.88 174.12L108.24 173.58L110.63 173.12L113.02 172.75L115.42 172.47L117.82 172.3L120.21 172.22L122.01 172.25L122.26 170.64L122.9 167.11L123.62 163.49L124.44 159.81L125.35 156.07L126.35 152.26L127.44 148.4L128.64 144.48L129.93 140.52L131.32 136.52L132.81 132.48L134.4 128.41L136.1 124.32L137.91 120.2L139.82 116.06L141.84 111.91L143.98 107.76L146.22 103.6L148.59 99.44L151.06 95.29L153.64 91.21L156.29 87.26L159.01 83.44L161.78 79.74L164.62 76.17L167.5 72.73L170.42 69.41L173.38 66.21L176.36 63.14L179.36 60.19L182.38 57.36L185.41 54.65L188.43 52.06L191.45 49.59L194.46 47.23L197.45 44.99L200.41 42.87L203.34 40.87L206.23 38.97L209.07 37.2L211.86 35.53L214.59 33.97L217.25 32.53L219.84 31.2L222.35 29.97L224.77 28.85L227.1 27.84L229.33 26.94L231.45 26.14L233.46 25.45L235.35 24.86L237.11 24.37L238.74 23.99L240.23 23.7L241.57 23.52L242.75 23.44L243.78 23.45L244.63 23.56L244.63 23.56L245.32 23.77Z" id="a5pe2JdlrU"></path><linearGradient id="gradientc67meymTle" gradientUnits="userSpaceOnUse" x1="21.63" y1="389.13" x2="193.09" y2="109.38"><stop style="stop-color: #fb5600;stop-opacity: 1" offset="0%"></stop><stop style="stop-color: #010000;stop-opacity: 1" offset="100%"></stop></linearGradient><path d="M391.37 128.67L391.66 128.87L391.95 129.08L392.24 129.3L392.52 129.51L392.8 129.73L393.08 129.95L393.36 130.18L393.63 130.41L393.9 130.64L394.17 130.88L394.43 131.12L394.7 131.37L394.96 131.61L395.22 131.86L395.47 132.12L395.72 132.38L395.97 132.64L396.22 132.9L396.46 133.17L396.7 133.44L396.94 133.72L397.18 134L397.41 134.28L397.64 134.57L397.87 134.85L398.09 135.15L398.31 135.44L398.53 135.74L398.75 136.05L398.96 136.36L399.17 136.67L399.37 136.98L399.57 137.3L399.77 137.62L399.97 137.94L400.16 138.27L400.35 138.6L401.23 140.25L402.05 142.02L402.83 143.9L403.56 145.88L404.23 147.97L404.85 150.14L405.42 152.41L405.94 154.75L406.39 157.17L406.79 159.66L407.13 162.21L407.41 164.82L407.63 167.48L407.79 170.18L407.88 172.92L407.9 175.69L407.86 178.48L407.75 181.29L407.57 184.12L407.33 186.95L407 189.78L406.61 192.6L406.14 195.42L405.6 198.21L404.98 200.98L404.28 203.72L403.5 206.42L402.98 208.03L404.34 208.99L406.89 210.91L409.47 212.96L412.08 215.13L414.7 217.42L417.34 219.84L419.99 222.39L422.65 225.06L425.3 227.85L427.96 230.78L430.61 233.82L433.25 236.99L435.88 240.29L438.48 243.71L441.07 247.25L443.63 250.92L446.16 254.72L448.65 258.64L451.11 262.68L453.52 266.85L455.84 271.1L458.03 275.4L460.1 279.73L462.04 284.09L463.86 288.47L465.56 292.86L467.14 297.25L468.62 301.65L469.98 306.03L471.24 310.4L472.4 314.74L473.47 319.05L474.43 323.32L475.31 327.54L476.09 331.71L476.8 335.82L477.42 339.86L477.96 343.82L478.42 347.7L478.82 351.49L479.15 355.18L479.41 358.76L479.6 362.23L479.74 365.57L479.83 368.79L479.86 371.88L479.85 374.82L479.78 377.61L479.68 380.24L479.54 382.71L479.36 385L479.15 387.12L478.9 389.04L478.64 390.77L478.35 392.3L478.04 393.62L477.72 394.73L477.38 395.6L477.03 396.25L476.68 396.65L476.17 396.94L475.48 397.13L474.62 397.21L473.59 397.19L472.41 397.06L471.08 396.83L469.6 396.5L467.99 396.06L466.24 395.51L464.38 394.86L462.39 394.09L460.3 393.22L458.1 392.24L455.81 391.15L453.43 389.95L450.96 388.64L448.42 387.21L445.81 385.68L443.14 384.03L440.41 382.26L437.63 380.39L434.81 378.4L431.95 376.29L429.07 374.06L426.16 371.72L423.24 369.27L420.3 366.69L417.37 364L414.44 361.18L411.52 358.25L408.63 355.2L405.75 352.02L402.91 348.72L400.1 345.3L397.35 341.76L394.64 338.09L391.99 334.3L389.41 330.39L386.9 326.35L384.47 322.18L382.14 317.95L379.92 313.71L377.82 309.47L375.83 305.25L373.96 301.03L372.19 296.83L370.53 292.65L368.97 288.5L367.52 284.37L366.17 280.29L364.92 276.24L363.77 272.24L362.71 268.28L361.75 264.38L360.89 260.54L360.11 256.77L359.42 253.06L358.83 249.43L358.31 245.87L358.11 244.26L356.32 244.22L353.93 244.06L351.54 243.8L349.15 243.44L346.77 242.99L344.41 242.45L342.06 241.82L339.74 241.1L337.44 240.31L335.18 239.44L332.95 238.5L330.76 237.5L328.62 236.42L326.52 235.29L324.48 234.1L322.5 232.86L320.58 231.57L318.72 230.23L316.94 228.85L315.23 227.44L313.6 225.99L312.05 224.51L310.59 223L309.22 221.47L307.95 219.92L306.79 218.35L305.72 216.78L304.77 215.19L304.59 214.86L304.4 214.52L304.22 214.18L304.05 213.84L303.88 213.5L303.71 213.15L303.55 212.8L303.39 212.46L303.23 212.1L303.08 211.75L302.94 211.39L302.79 211.04L302.65 210.68L302.52 210.32L302.39 209.95L302.26 209.59L302.13 209.22L302.01 208.85L301.9 208.48L301.78 208.11L301.67 207.74L301.57 207.36L301.47 206.98L301.37 206.61L301.27 206.22L301.18 205.84L301.1 205.46L301.01 205.07L300.93 204.69L300.86 204.3L300.79 203.91L300.72 203.52L300.65 203.13L300.59 202.73L300.53 202.34L300.48 201.94L300.43 201.54L300.38 201.14L300.34 200.74L300.3 200.34L301.44 201.04L302.61 201.69L303.81 202.3L305.04 202.85L306.3 203.35L307.59 203.81L308.9 204.21L310.24 204.57L311.6 204.87L312.99 205.13L314.39 205.34L315.82 205.49L317.27 205.6L318.74 205.66L320.22 205.67L321.73 205.63L323.24 205.54L324.77 205.4L326.32 205.21L327.87 204.97L329.44 204.69L331.02 204.35L332.61 203.96L334.2 203.53L335.8 203.04L337.41 202.51L339.02 201.92L340.63 201.29L342.25 200.61L343.87 199.87L345.48 199.09L347.1 198.26L348.71 197.38L350.33 196.45L351.93 195.47L353.53 194.44L355.13 193.36L356.71 192.23L358.29 191.05L359.86 189.82L361.41 188.55L362.92 187.26L364.39 185.93L365.84 184.58L367.24 183.2L368.61 181.8L369.94 180.37L371.23 178.92L372.49 177.45L373.71 175.96L374.89 174.45L376.03 172.93L377.13 171.39L378.19 169.83L379.21 168.26L380.19 166.68L381.13 165.08L382.03 163.48L382.89 161.86L383.7 160.24L384.47 158.61L385.2 156.98L385.89 155.34L386.53 153.71L387.12 152.06L387.68 150.42L388.18 148.78L388.65 147.14L389.06 145.51L389.43 143.87L389.75 142.25L390.03 140.63L390.26 139.02L390.44 137.42L390.57 135.83L390.65 134.25L390.69 132.68L390.67 131.13L390.6 129.59L390.49 128.07L390.79 128.27L391.08 128.47L391.08 128.47L391.37 128.67ZM269.63 26.17L272.19 26.99L274.62 27.97L276.9 29.09L279.06 30.33L281.09 31.7L282.99 33.17L284.78 34.74L286.45 36.41L288.01 38.15L289.46 39.97L290.8 41.85L292.05 43.78L293.2 45.75L294.26 47.76L295.23 49.79L296.11 51.83L296.91 53.87L297.64 55.91L298.29 57.94L298.88 59.94L299.4 61.9L299.85 63.82L300.25 65.69L300.6 67.49L300.9 69.22L301.15 70.86L301.36 72.42L301.53 73.87L301.66 75.21L301.77 76.42L301.85 77.51L301.9 78.46L301.94 79.25L301.96 79.89L301.97 80.35L301.98 80.64L301.98 80.74L302.41 82.61L302.78 84.75L303.09 87.13L303.34 89.74L303.55 92.57L303.72 95.59L303.86 98.79L303.97 102.16L304.06 105.67L304.14 109.31L304.22 113.07L304.29 116.92L304.37 120.86L304.46 124.85L304.58 128.9L304.71 132.97L304.89 137.05L305.1 141.14L305.36 145.2L305.67 149.23L306.04 153.2L306.48 157.11L306.99 160.92L307.58 164.64L308.26 168.23L309.02 171.69L309.89 174.99L310.86 178.12L311.95 181.07L313.15 183.81L314.48 186.34L315.94 188.63L317.54 190.66L319.28 192.42L321.18 193.9L323.23 195.08L325.45 195.93L327.84 196.45L330.41 196.61L333.17 196.41L328.49 197.32L324.09 197.74L319.97 197.67L316.1 197.15L312.49 196.2L309.12 194.84L305.98 193.11L303.08 191.02L300.39 188.6L297.92 185.88L295.65 182.88L293.58 179.62L291.69 176.14L289.98 172.45L288.44 168.58L287.06 164.55L285.84 160.4L284.76 156.14L283.82 151.8L283.01 147.41L282.32 142.99L281.74 138.56L281.26 134.16L280.88 129.8L280.59 125.51L280.37 121.32L280.23 117.24L280.15 113.32L280.12 109.56L280.14 106L280.19 102.66L280.28 99.56L280.39 96.73L280.5 94.21L280.63 92L280.75 90.13L280.86 88.64L280.94 87.54L281 86.87L281.02 86.64L281.03 86.53L281.04 86.22L281.05 85.71L281.07 85.02L281.08 84.15L281.1 83.12L281.1 81.94L281.1 80.61L281.08 79.15L281.06 77.56L281.01 75.87L280.95 74.07L280.86 72.18L280.75 70.21L280.62 68.17L280.45 66.07L280.25 63.92L280.02 61.73L279.76 59.52L279.45 57.28L279.1 55.03L278.7 52.79L278.26 50.56L277.77 48.36L277.23 46.18L276.63 44.05L275.98 41.98L275.26 39.97L274.49 38.03L273.64 36.18L272.73 34.43L271.75 32.78L270.7 31.25L269.57 29.84L268.37 28.57L267.08 27.46L265.71 26.49L264.26 25.7L262.71 25.09L261.08 24.66L264.08 24.99L266.93 25.49L266.93 25.49L269.63 26.17ZM307.66 34L310.33 35.26L312.85 36.6L315.23 38.04L317.47 39.55L319.57 41.14L321.54 42.79L323.39 44.5L325.12 46.26L326.72 48.06L328.21 49.9L329.59 51.77L330.87 53.66L332.05 55.56L333.12 57.47L334.11 59.38L335 61.29L335.81 63.18L336.54 65.05L337.2 66.89L337.78 68.69L338.3 70.45L338.75 72.16L339.14 73.81L339.47 75.4L339.76 76.91L340 78.34L340.19 79.69L340.35 80.95L340.47 82.1L340.56 83.14L340.63 84.07L340.67 84.87L340.7 85.55L340.71 86.09L340.72 86.48L340.72 86.72L340.72 86.8L340.7 86.96L340.66 87.41L340.6 88.15L340.52 89.16L340.43 90.43L340.32 91.94L340.21 93.68L340.1 95.62L339.98 97.77L339.87 100.1L339.77 102.6L339.68 105.26L339.61 108.05L339.56 110.97L339.53 114.01L339.52 117.13L339.55 120.35L339.61 123.62L339.71 126.96L339.86 130.33L340.04 133.72L340.28 137.13L340.57 140.53L340.92 143.91L341.33 147.26L341.81 150.56L342.35 153.79L342.97 156.95L343.66 160.02L344.43 162.98L345.29 165.82L346.23 168.52L347.27 171.08L348.4 173.47L349.63 175.68L350.96 177.7L352.39 179.51L353.94 181.1L355.6 182.45L357.38 183.55L356.32 184.36L355.28 185.15L354.24 185.91L353.21 186.64L352.2 187.34L351.19 187.99L350.19 188.6L349.2 189.16L348.22 189.66L347.25 190.11L346.29 190.49L345.33 190.8L344.39 191.05L343.45 191.21L342.53 191.3L341.61 191.29L340.69 191.2L339.79 191.02L338.9 190.73L338.01 190.34L337.13 189.85L336.25 189.24L335.39 188.51L334.53 187.66L333.68 186.69L332.83 185.58L331.99 184.34L331.16 182.96L330.34 181.44L329.52 179.77L328.7 177.95L327.9 175.96L327.1 173.82L326.3 171.51L325.51 169.03L324.73 166.37L323.95 163.54L323.17 160.52L322.4 157.31L321.64 153.9L321.63 153.86L321.6 153.73L321.56 153.5L321.5 153.2L321.43 152.8L321.34 152.33L321.24 151.78L321.13 151.14L321.02 150.43L320.89 149.65L320.75 148.79L320.61 147.86L320.47 146.86L320.32 145.79L320.17 144.65L320.01 143.45L319.86 142.19L319.71 140.86L319.56 139.47L319.41 138.03L319.27 136.53L319.13 134.98L319 133.37L318.88 131.71L318.77 130.01L318.67 128.25L318.58 126.45L318.5 124.6L318.44 122.72L318.39 120.79L318.36 118.82L318.34 116.82L318.35 114.78L318.37 112.71L318.41 110.6L318.48 108.47L318.57 106.3L318.68 104.11L318.82 101.89L318.99 99.65L319 99.55L319.03 99.25L319.06 98.76L319.11 98.09L319.17 97.25L319.23 96.25L319.28 95.1L319.34 93.8L319.38 92.36L319.42 90.8L319.44 89.13L319.44 87.35L319.43 85.47L319.38 83.5L319.32 81.45L319.22 79.33L319.08 77.15L318.91 74.91L318.7 72.63L318.44 70.32L318.13 67.98L317.78 65.63L317.37 63.27L316.9 60.91L316.36 58.56L315.77 56.24L315.11 53.94L314.37 51.68L313.56 49.47L312.67 47.31L311.7 45.22L310.64 43.21L309.5 41.28L308.26 39.44L306.93 37.71L305.5 36.08L303.97 34.58L302.33 33.21L300.58 31.97L298.72 30.88L301.86 31.81L304.84 32.85L304.84 32.85L307.66 34ZM361.8 77.34L365.09 81.85L368.06 86.28L370.7 90.63L373.04 94.9L375.08 99.09L376.85 103.18L378.35 107.19L379.59 111.1L380.6 114.91L381.38 118.63L381.95 122.25L382.33 125.76L382.52 129.17L382.54 132.47L382.41 135.65L382.14 138.73L381.73 141.68L381.21 144.52L380.6 147.24L379.89 149.83L379.11 152.29L378.27 154.63L377.39 156.83L376.47 158.9L375.54 160.83L374.6 162.62L373.67 164.27L372.77 165.78L371.9 167.14L371.08 168.34L370.33 169.4L369.65 170.3L369.07 171.04L368.59 171.62L368.23 172.04L368.01 172.29L367.93 172.38L366.77 170.96L365.69 169.45L364.69 167.85L363.75 166.16L362.88 164.39L362.08 162.56L361.34 160.66L360.66 158.7L360.04 156.7L359.48 154.65L358.97 152.57L358.51 150.46L358.1 148.33L357.74 146.18L357.42 144.03L357.15 141.87L356.91 139.72L356.71 137.59L356.55 135.47L356.42 133.39L356.31 131.33L356.24 129.32L356.19 127.35L356.16 125.44L356.15 123.6L356.16 121.82L356.19 120.11L356.23 118.49L356.28 116.96L356.34 115.53L356.4 114.2L356.47 112.98L356.54 111.87L356.6 110.89L356.67 110.05L356.72 109.34L356.77 108.78L356.81 108.37L356.83 108.11L356.84 108.03L357.09 105.8L357.29 103.66L357.45 101.6L357.57 99.64L357.64 97.76L357.68 95.95L357.67 94.23L357.64 92.58L357.57 91L357.47 89.49L357.34 88.05L357.18 86.68L357 85.36L356.8 84.11L356.57 82.91L356.33 81.76L356.06 80.66L355.79 79.62L355.5 78.62L355.19 77.66L354.88 76.74L354.56 75.86L354.24 75.01L353.91 74.2L353.58 73.42L353.25 72.66L352.92 71.93L352.6 71.21L352.28 70.52L351.97 69.84L351.67 69.18L351.38 68.53L351.11 67.88L350.85 67.24L350.61 66.61L350.39 65.97L350.19 65.33L350.02 64.68L349.87 64.03L349.75 63.37L354.14 68.1L358.15 72.75L358.15 72.75L361.8 77.34Z" id="d7C0u1dqf"></path><linearGradient id="gradientigYysQZiA" gradientUnits="userSpaceOnUse" x1="264.19" y1="26.14" x2="429.69" y2="311.16"><stop style="stop-color: #fb5600;stop-opacity: 1" offset="0%"></stop><stop style="stop-color: #010000;stop-opacity: 1" offset="100%"></stop></linearGradient><path d="M294.08 354.79L294.46 354.81L294.83 354.84L295.21 354.86L295.58 354.9L295.95 354.93L296.32 354.97L296.69 355.02L297.06 355.07L297.42 355.12L297.79 355.18L298.15 355.24L298.51 355.31L298.87 355.38L299.22 355.45L299.58 355.53L299.93 355.62L300.28 355.7L300.63 355.8L300.98 355.89L301.32 355.99L301.67 356.09L302.01 356.2L302.35 356.31L302.69 356.43L303.03 356.55L303.36 356.67L303.7 356.8L304.03 356.93L304.36 357.07L304.69 357.21L305.01 357.35L305.34 357.5L305.66 357.65L305.98 357.8L306.3 357.96L306.62 358.12L306.93 358.29L305.55 358.92L304.17 359.61L302.8 360.35L301.45 361.14L300.11 361.98L298.78 362.86L297.47 363.8L296.17 364.78L294.89 365.8L293.62 366.87L292.38 367.99L291.15 369.14L289.94 370.34L288.75 371.58L287.58 372.86L286.43 374.18L285.31 375.54L284.21 376.93L283.14 378.36L282.09 379.82L281.06 381.32L280.07 382.85L279.1 384.41L278.16 386.01L277.25 387.63L276.37 389.29L275.53 390.97L274.71 392.68L273.93 394.42L273.18 396.18L272.47 397.97L271.79 399.78L271.15 401.62L270.55 403.47L269.99 405.35L269.46 407.24L268.98 409.16L268.53 411.09L268.13 413.04L267.77 415.01L267.46 416.98L267.19 418.93L266.98 420.87L266.81 422.78L266.68 424.68L266.6 426.56L266.57 428.42L266.58 430.26L266.64 432.08L266.74 433.87L266.88 435.64L267.07 437.39L267.29 439.11L267.56 440.8L267.88 442.46L268.23 444.1L268.62 445.7L269.05 447.28L269.52 448.82L270.03 450.33L270.57 451.81L271.16 453.25L271.78 454.66L272.44 456.03L273.13 457.36L273.86 458.66L274.62 459.91L275.42 461.13L276.25 462.3L277.11 463.43L278.01 464.52L278.94 465.56L279.9 466.56L280.89 467.51L281.91 468.42L282.96 469.27L284.04 470.08L285.15 470.84L286.29 471.55L287.45 472.2L287.08 472.36L286.71 472.52L286.34 472.67L285.96 472.82L285.59 472.97L285.22 473.11L284.84 473.25L284.47 473.38L284.09 473.51L283.72 473.64L283.34 473.76L282.96 473.88L282.59 473.99L282.21 474.1L281.83 474.21L281.45 474.31L281.07 474.41L280.69 474.5L280.31 474.59L279.93 474.67L279.55 474.76L279.17 474.83L278.79 474.91L278.41 474.98L278.03 475.04L277.65 475.1L277.27 475.16L276.89 475.21L276.5 475.26L276.12 475.3L275.74 475.34L275.36 475.38L274.97 475.41L274.59 475.43L274.21 475.45L273.82 475.47L273.44 475.48L273.06 475.49L272.67 475.49L272.29 475.49L270.44 475.43L268.55 475.26L266.61 475L264.64 474.64L262.64 474.19L260.62 473.64L258.57 473.01L256.51 472.29L254.45 471.48L252.37 470.58L250.31 469.61L248.24 468.56L246.2 467.42L244.17 466.21L242.16 464.93L240.18 463.57L238.24 462.15L236.34 460.66L234.48 459.1L232.68 457.47L230.93 455.79L229.24 454.04L227.62 452.24L226.07 450.38L224.6 448.46L223.21 446.5L221.91 444.48L221.01 442.93L219.5 443.54L216.14 444.81L212.68 446.05L209.1 447.25L205.42 448.4L201.64 449.5L197.77 450.55L193.8 451.55L189.74 452.48L185.59 453.35L181.36 454.15L177.05 454.88L172.67 455.53L168.21 456.11L163.67 456.6L159.08 457L154.42 457.31L149.69 457.53L144.91 457.65L140.08 457.66L135.26 457.55L130.51 457.32L125.83 456.96L121.23 456.48L116.71 455.89L112.28 455.19L107.93 454.4L103.66 453.51L99.49 452.54L95.42 451.48L91.44 450.35L87.56 449.15L83.78 447.89L80.1 446.58L76.54 445.21L73.08 443.8L69.74 442.36L66.51 440.88L63.4 439.38L60.41 437.86L57.54 436.33L54.81 434.79L52.2 433.25L49.72 431.72L47.38 430.2L45.17 428.7L43.11 427.22L41.18 425.77L39.41 424.37L37.78 423L36.3 421.69L34.97 420.43L33.81 419.23L32.8 418.1L31.95 417.05L31.27 416.07L30.75 415.19L30.41 414.39L30.23 413.7L30.24 413.11L30.42 412.61L30.82 411.99L31.42 411.27L32.23 410.45L33.23 409.54L34.43 408.55L35.82 407.48L37.39 406.33L39.13 405.12L41.05 403.85L43.14 402.53L45.39 401.17L47.8 399.76L50.37 398.32L53.08 396.85L55.94 395.37L58.93 393.86L62.06 392.36L65.32 390.85L68.71 389.34L72.21 387.85L75.83 386.38L79.56 384.93L83.39 383.52L87.32 382.14L91.35 380.81L95.47 379.53L99.67 378.3L103.96 377.14L108.32 376.05L112.75 375.04L117.24 374.11L121.8 373.27L126.41 372.52L131.08 371.88L135.79 371.35L140.54 370.93L145.33 370.64L150.15 370.47L155 370.44L159.81 370.53L164.54 370.72L169.18 371L173.72 371.37L178.17 371.83L182.53 372.37L186.78 372.99L190.94 373.69L194.99 374.46L198.94 375.31L202.78 376.21L206.52 377.18L210.14 378.21L213.65 379.29L217.05 380.43L220.33 381.61L223.49 382.83L226.53 384.1L229.44 385.41L230.95 386.13L232.1 384.89L234.09 382.9L236.14 380.96L238.26 379.08L240.44 377.25L242.67 375.47L244.95 373.76L247.28 372.1L249.63 370.51L252.02 368.99L254.42 367.53L256.85 366.14L259.28 364.82L261.72 363.57L264.16 362.4L266.59 361.3L269 360.28L271.4 359.34L273.77 358.49L276.11 357.71L278.41 357.02L280.66 356.42L282.87 355.91L285.02 355.49L287.11 355.17L289.13 354.94L291.07 354.8L292.94 354.77L293.32 354.77L293.7 354.78L293.7 354.78L294.08 354.79ZM432.97 403.94L435.26 404.33L437.54 404.84L439.81 405.5L442.05 406.3L444.26 407.25L446.44 408.36L448.57 409.64L450.66 411.1L452.69 412.75L454.65 414.58L456.55 416.62L458.37 418.87L460.11 421.34L458.95 420.11L457.67 419.06L456.27 418.17L454.76 417.44L453.16 416.86L451.47 416.42L449.69 416.11L447.84 415.94L445.93 415.88L443.95 415.93L441.92 416.09L439.85 416.35L437.75 416.7L435.62 417.13L433.46 417.64L431.3 418.22L429.13 418.86L426.97 419.56L424.82 420.3L422.68 421.08L420.58 421.9L418.51 422.74L416.48 423.6L414.51 424.47L412.59 425.34L410.74 426.21L408.96 427.07L407.27 427.91L405.67 428.73L404.16 429.51L402.76 430.26L401.48 430.95L400.32 431.59L399.28 432.17L398.39 432.68L397.64 433.11L397.04 433.46L396.6 433.72L396.34 433.88L396.24 433.94L396.05 434.07L395.49 434.45L394.57 435.06L393.32 435.88L391.75 436.88L389.87 438.06L387.72 439.39L385.3 440.86L382.63 442.43L379.74 444.1L376.63 445.84L373.33 447.64L369.86 449.47L366.23 451.32L362.46 453.17L358.56 454.99L354.56 456.77L350.48 458.49L346.33 460.13L342.13 461.67L337.89 463.09L333.64 464.37L329.39 465.49L325.17 466.43L320.98 467.18L316.85 467.71L312.79 468L308.83 468.04L304.97 467.8L301.25 467.27L297.67 466.43L294.25 465.26L291.02 463.73L287.98 461.83L285.16 459.54L282.58 456.84L280.25 453.71L278.19 450.13L276.42 446.08L274.96 441.55L276.11 444.06L277.5 446.23L279.11 448.07L280.94 449.59L282.96 450.82L285.17 451.76L287.56 452.43L290.11 452.85L292.82 453.01L295.67 452.95L298.66 452.67L301.76 452.19L304.97 451.53L308.28 450.68L311.68 449.68L315.15 448.53L318.68 447.24L322.27 445.84L325.89 444.33L329.55 442.73L333.22 441.05L336.9 439.3L340.58 437.51L344.23 435.68L347.86 433.83L351.46 431.97L355 430.11L358.47 428.27L361.88 426.47L365.2 424.71L368.42 423.02L371.54 421.39L374.54 419.86L377.41 418.43L380.13 417.11L382.71 415.92L385.12 414.88L387.35 414L389.4 413.28L391.24 412.75L391.33 412.71L391.58 412.57L391.99 412.35L392.56 412.06L393.27 411.71L394.13 411.3L395.12 410.84L396.23 410.35L397.47 409.82L398.82 409.26L400.28 408.69L401.84 408.11L403.5 407.53L405.24 406.96L407.07 406.41L408.97 405.88L410.94 405.38L412.97 404.92L415.06 404.51L417.19 404.16L419.37 403.87L421.59 403.65L423.83 403.52L426.1 403.47L428.38 403.52L430.67 403.67L430.67 403.67L432.97 403.94ZM403.19 374.55L405.5 374.86L407.83 375.27L410.18 375.8L412.56 376.45L414.95 377.24L417.35 378.17L419.75 379.24L422.16 380.46L424.57 381.85L426.97 383.4L429.36 385.13L431.74 387.03L434.09 389.13L436.42 391.43L434.57 390.33L432.64 389.4L430.65 388.63L428.59 388.02L426.48 387.56L424.31 387.23L422.11 387.04L419.86 386.98L417.59 387.03L415.29 387.2L412.98 387.46L410.65 387.83L408.32 388.28L405.99 388.81L403.66 389.42L401.35 390.09L399.06 390.83L396.8 391.61L394.56 392.44L392.37 393.31L390.22 394.2L388.13 395.12L386.09 396.05L384.12 396.99L382.22 397.93L380.39 398.87L378.65 399.79L377 400.68L375.44 401.55L373.98 402.38L372.64 403.17L371.41 403.9L370.3 404.58L369.31 405.19L368.46 405.72L367.76 406.18L367.19 406.55L366.78 406.82L366.53 406.99L366.45 407.04L364.57 408.28L362.7 409.47L360.84 410.63L358.99 411.76L357.16 412.86L355.34 413.92L353.53 414.94L351.75 415.93L349.99 416.89L348.26 417.82L346.55 418.71L344.87 419.57L343.21 420.39L341.6 421.19L340.01 421.95L338.46 422.68L336.95 423.38L335.49 424.04L334.06 424.68L332.68 425.28L331.35 425.85L330.06 426.39L328.83 426.9L327.65 427.38L326.52 427.83L325.46 428.25L324.45 428.64L323.5 428.99L322.62 429.32L321.81 429.62L321.06 429.89L320.38 430.13L319.77 430.34L319.24 430.53L318.78 430.68L318.4 430.8L318.11 430.9L317.89 430.97L317.76 431.01L317.72 431.03L314.37 432.01L311.19 432.89L308.17 433.68L305.32 434.37L302.61 434.97L300.06 435.49L297.65 435.91L295.39 436.25L293.27 436.5L291.28 436.68L289.42 436.77L287.68 436.79L286.08 436.73L284.58 436.6L283.21 436.39L281.94 436.12L280.79 435.78L279.73 435.38L278.77 434.91L277.91 434.38L277.14 433.79L276.46 433.14L275.86 432.44L275.34 431.69L274.89 430.89L274.51 430.04L274.2 429.14L273.96 428.19L273.77 427.21L273.64 426.18L273.56 425.11L273.52 424.01L273.53 422.88L273.58 421.71L273.66 420.51L273.78 419.28L273.92 418.03L274.08 416.76L274.26 415.46L274.46 414.14L276.29 415.16L278.27 415.96L280.41 416.54L282.69 416.92L285.1 417.11L287.63 417.11L290.27 416.94L293.01 416.6L295.83 416.12L298.73 415.49L301.69 414.73L304.71 413.85L307.77 412.86L310.87 411.76L313.98 410.58L317.11 409.32L320.24 407.98L323.35 406.59L326.45 405.15L329.51 403.67L332.52 402.16L335.49 400.63L338.39 399.09L341.21 397.56L343.94 396.04L346.58 394.54L349.11 393.08L351.52 391.66L353.8 390.3L355.93 389L357.92 387.77L359.74 386.63L361.39 385.58L362.86 384.64L364.12 383.82L365.19 383.13L366.03 382.57L366.65 382.15L367.03 381.9L367.16 381.81L367.23 381.77L367.44 381.65L367.78 381.47L368.26 381.22L368.86 380.91L369.59 380.56L370.43 380.17L371.39 379.75L372.46 379.29L373.63 378.82L374.9 378.34L376.27 377.85L377.74 377.37L379.29 376.89L380.92 376.43L382.63 376L384.42 375.6L386.28 375.23L388.21 374.91L390.2 374.65L392.24 374.44L394.34 374.3L396.49 374.23L398.69 374.25L400.92 374.35L400.92 374.35L403.19 374.55ZM365.22 358.79L370.99 359.75L377.01 361L383.27 362.55L382.63 362.76L381.99 362.95L381.34 363.11L380.69 363.25L380.02 363.36L379.35 363.46L378.67 363.55L377.97 363.62L377.26 363.69L376.53 363.75L375.79 363.8L375.03 363.86L374.25 363.92L373.45 363.99L372.63 364.07L371.78 364.16L370.91 364.27L370.02 364.4L369.09 364.54L368.14 364.72L367.15 364.92L366.14 365.15L365.09 365.41L364 365.71L362.88 366.05L361.72 366.44L360.52 366.87L359.29 367.35L358.01 367.88L356.68 368.46L355.32 369.11L353.9 369.81L352.44 370.58L350.93 371.41L349.37 372.32L347.76 373.3L346.1 374.35L344.38 375.48L342.61 376.7L340.78 378L340.7 378.05L340.5 378.19L340.16 378.42L339.69 378.74L339.09 379.13L338.38 379.6L337.56 380.13L336.63 380.72L335.6 381.37L334.46 382.08L333.24 382.82L331.92 383.61L330.52 384.43L329.05 385.28L327.49 386.15L325.87 387.04L324.19 387.94L322.45 388.85L320.65 389.76L318.8 390.66L316.91 391.56L314.98 392.44L313.02 393.3L311.03 394.14L309.01 394.94L306.97 395.71L304.92 396.43L302.85 397.11L300.79 397.73L298.72 398.29L296.65 398.79L294.6 399.22L292.56 399.58L290.54 399.85L288.55 400.04L286.59 400.14L284.66 400.14L282.76 400.03L280.92 399.82L279.12 399.5L279.16 399.39L279.27 399.07L279.46 398.55L279.74 397.85L280.1 396.98L280.56 395.96L281.12 394.79L281.78 393.49L282.55 392.07L283.42 390.55L284.42 388.93L285.53 387.24L286.77 385.49L288.13 383.69L289.63 381.85L291.27 379.98L293.04 378.1L294.97 376.23L297.04 374.37L299.27 372.54L301.66 370.76L304.22 369.03L306.94 367.37L309.84 365.79L312.91 364.3L316.16 362.93L319.6 361.68L323.24 360.56L327.06 359.59L331.09 358.78L335.32 358.15L339.75 357.71L344.4 357.47L349.27 357.44L354.36 357.64L359.67 358.09L359.67 358.09L365.22 358.79Z" id="a2VmzQLiFK"></path><linearGradient id="gradienta3EEAnvbg2" gradientUnits="userSpaceOnUse" x1="456.83" y1="418.22" x2="135.3" y2="414.06"><stop style="stop-color: #fb5600;stop-opacity: 1" offset="0%"></stop><stop style="stop-color: #010000;stop-opacity: 1" offset="100%"></stop></linearGradient></defs><g><g><g><use xlink:href="#a5pe2JdlrU" opacity="1" fill="url(#gradientc67meymTle)"></use><g><use xlink:href="#a5pe2JdlrU" opacity="1" fill-opacity="0" stroke="#000000" stroke-width="1" stroke-opacity="0"></use></g></g><g><use xlink:href="#d7C0u1dqf" opacity="1" fill="url(#gradientigYysQZiA)"></use><g><use xlink:href="#d7C0u1dqf" opacity="1" fill-opacity="0" stroke="#000000" stroke-width="1" stroke-opacity="0"></use></g></g><g><use xlink:href="#a2VmzQLiFK" opacity="1" fill="url(#gradienta3EEAnvbg2)"></use><g><use xlink:href="#a2VmzQLiFK" opacity="1" fill-opacity="0" stroke="#000000" stroke-width="1" stroke-opacity="0"></use></g></g></g></g></svg>